<svg width="288" height="259" viewBox="0 0 288 259" fill="none" xmlns="http://www.w3.org/2000/svg">
<path d="M36 0C26.4522 0 17.2955 3.79285 10.5442 10.5442C3.79285 17.2955 0 26.4522 0 36L0 180C0 189.548 3.79285 198.705 10.5442 205.456C17.2955 212.207 26.4522 216 36 216H81C83.7944 216 86.5504 216.651 89.0498 217.9C91.5492 219.15 93.7234 220.964 95.4 223.2L129.6 251C131.277 253.236 133.451 255.05 135.95 256.3C138.45 257.549 141.206 258.2 144 258.2C146.794 258.2 149.55 257.549 152.05 256.3C154.549 255.05 156.723 253.236 158.4 251L192.6 223.2C194.277 220.964 196.451 219.15 198.95 217.9C201.45 216.651 204.206 216 207 216H252C261.548 216 270.705 212.207 277.456 205.456C284.207 198.705 288 189.548 288 180V36C288 26.4522 284.207 17.2955 277.456 10.5442C270.705 3.79285 261.548 0 252 0L36 0Z" fill="url(#paint0_linear_1393_12459)"/>
<path d="M126.919 60.448C134.521 46.816 138.319 40 144.001 40C149.683 40 153.481 46.816 161.083 60.448L163.051 63.976C165.211 67.852 166.291 69.79 167.971 71.068C169.651 72.346 171.751 72.82 175.951 73.768L179.767 74.632C194.527 77.974 201.901 79.642 203.659 85.288C205.411 90.928 200.383 96.814 190.321 108.58L187.717 111.622C184.861 114.964 183.427 116.638 182.785 118.702C182.143 120.772 182.359 123.004 182.791 127.462L183.187 131.524C184.705 147.226 185.467 155.074 180.871 158.56C176.275 162.046 169.363 158.866 155.551 152.506L151.969 150.862C148.045 149.05 146.083 148.15 144.001 148.15C141.919 148.15 139.957 149.05 136.033 150.862L132.457 152.506C118.639 158.866 111.727 162.046 107.137 158.566C102.535 155.074 103.297 147.226 104.815 131.524L105.211 127.468C105.643 123.004 105.859 120.772 105.211 118.708C104.575 116.638 103.141 114.964 100.285 111.628L97.6814 108.58C87.6194 96.82 82.5914 90.934 84.3434 85.288C86.0954 79.642 93.4814 77.968 108.241 74.632L112.057 73.768C116.251 72.82 118.345 72.346 120.031 71.068C121.717 69.79 122.791 67.852 124.951 63.976L126.919 60.448Z" stroke="#F7F7F7" stroke-width="16"/>
<defs>
<linearGradient id="paint0_linear_1393_12459" x1="288" y1="-8.50001" x2="6.5" y2="236.5" gradientUnits="userSpaceOnUse">
<stop stop-color="#DF540D"/>
<stop offset="0.52" stop-color="#AD440E"/>
<stop offset="1" stop-color="#DF540D"/>
</linearGradient>
</defs>
</svg>
